<svg width="63" height="18" viewBox="0 0 63 18" fill="none" xmlns="http://www.w3.org/2000/svg">
<path d="M0.258239 0V0.391343H63V0H0.258239ZM0.258239 17.6087V18H63V17.6087H0.258239ZM41.6143 14.1324C44.3779 12.983 45.363 11.4912 45.363 8.55647C45.363 4.96135 43.8972 3.20039 40.1004 3.20039C36.8804 3.20039 35.0062 5.05914 35.0062 8.4096C35.0062 11.4177 36.0634 13.3253 38.178 14.0591C38.947 14.3281 39.8361 14.0591 41.4461 15.0129C43.8972 16.4557 43.8972 16.4803 44.5219 16.4803C44.8823 16.4803 45.0745 16.3335 45.0745 16.138C45.0745 15.771 44.3778 16.138 43.5126 15.0618C43.2002 14.6705 42.6715 14.377 41.7584 14.1569L41.6143 14.1324ZM40.1756 3.95761C42.4823 3.95761 43.7079 5.66958 43.7079 8.72658C43.7079 11.8326 42.6266 13.569 40.1995 13.569C38.0129 13.569 36.6191 11.9059 36.6191 8.75116C36.6191 5.69407 37.9888 3.95761 40.1756 3.95761ZM8.4825 3.42332C7.18483 3.25214 6.12755 3.10536 4.8059 3.10536C1.6821 3.10536 0 4.9886 0 8.55914C0 12.3498 2.01839 14.3064 5.59891 14.3064C6.65619 14.3064 7.56934 14.1596 8.02588 13.8906C8.55452 13.5972 8.84286 12.5455 8.84286 12.4477C8.84286 12.2765 8.81888 12.2276 8.77084 12.2276C8.62662 12.2276 7.47317 13.4993 5.67093 13.4993C3.292 13.4993 1.87427 11.6896 1.87427 8.58363C1.87427 5.55103 3.21989 3.93685 5.71905 3.93685C7.83362 3.93685 8.29024 4.79284 8.53045 4.79284C8.60265 4.79284 8.62654 4.76835 8.62654 4.71945C8.62654 4.57276 8.50639 3.93685 8.48241 3.54551L8.4825 3.42332ZM20.9747 3.41886C21.3832 5.25312 21.4313 5.61997 21.4313 9.04382C21.4313 11.147 21.3832 12.9569 21.3352 14.3263V14.4731H22.9212C22.3205 13.6905 22.2964 13.5926 22.2964 12.7367L22.4886 5.76665L28.7604 14.4731H29.6976L29.5775 3.41886H28.1597C28.7124 4.12807 28.7364 4.17706 28.7604 5.13083L28.448 11.0981L22.9212 3.41886H20.9747ZM46.593 3.41788C46.8814 7.03749 46.8814 7.03749 46.8814 8.18694C46.8814 9.16521 46.8333 9.87442 46.8333 10.5837C46.8333 13.5184 47.8186 14.7168 50.8223 14.7168C54.2345 14.7168 54.8592 13.5184 54.8592 10.2902V3.41788H53.3695C53.6818 4.05379 53.8741 4.44505 53.8741 5.10536L53.778 8.96945C53.778 13.5429 53.0571 13.9098 51.0626 13.9098C48.5155 13.9098 48.4914 12.3446 48.4914 8.92056C48.4914 7.89348 48.5876 5.10536 48.7557 3.51567V3.41788H46.593ZM56.277 3.42038C56.5654 6.03732 56.6134 6.72194 56.6134 9.09432C56.6134 10.4149 56.6134 10.4149 56.3012 14.2791V14.3769C57.6468 14.2546 58.4639 14.2057 59.1366 14.2057C60.3381 14.2057 61.059 14.3769 61.7078 14.3769C62.5969 14.3769 62.9574 14.1324 62.9574 12.8361V12.7383C62.5249 13.2519 62.0682 13.5698 61.3233 13.5698C60.4581 13.5698 59.3049 13.3986 58.2715 13.1786L58.1514 13.1541L58.2954 9.06991H62.5487C62.5007 8.82535 62.5007 8.77645 62.5007 8.62967C62.5007 8.50739 62.5007 8.43409 62.5247 8.26283L62.5486 8.16503H58.2953V4.52102C59.7612 4.42323 61.4914 4.25205 61.972 4.25205C62.2604 4.25205 62.2844 4.27645 62.861 4.76559L62.9091 4.81457L62.741 3.42047L56.277 3.42038ZM9.87301 3.41886C10.0892 5.30201 10.2094 6.72043 10.2094 10.1688C10.2094 11.465 10.1614 12.5411 10.0653 14.3753V14.4731C11.1706 14.3998 11.7713 14.3508 12.5163 14.3508C13.6938 14.3508 13.7658 14.4487 14.679 14.4487C15.3999 14.4487 15.7603 14.253 15.8325 14.1796C15.8805 14.1552 16.289 13.446 16.289 12.9569C16.289 12.7857 16.2169 12.7612 16.1688 12.7612C16.0006 12.7612 15.7123 13.6172 14.7031 13.6172C13.862 13.6172 13.3574 13.3726 12.0837 13.3726H11.9397C11.9397 8.53028 11.9397 6.03571 12.0599 3.51665V3.41886H9.87301ZM17.1566 3.41886C17.3728 6.30468 17.4209 7.28304 17.4209 9.55736C17.4209 11.4895 17.3969 12.0274 17.2767 14.3754V14.4732H19.1511C19.0549 12.3699 19.0309 11.0004 19.0309 8.62816C19.0309 7.91886 19.0309 7.91886 19.175 3.51674V3.41895L17.1566 3.41886ZM31.7865 3.41886C32.0028 6.1091 32.0508 7.33194 32.0508 9.48406C32.0508 11.416 32.0027 13.177 31.9066 14.3754V14.4732H33.781C33.7089 12.3211 33.6608 10.8293 33.6608 8.67706C33.6608 8.01665 33.6608 7.99225 33.8049 3.51674V3.41895L31.7865 3.41886Z" fill="#363636"/>
</svg>
