<svg width="67" height="16" viewBox="0 0 67 16" fill="none" xmlns="http://www.w3.org/2000/svg">
<g opacity="0.985">
<path fill-rule="evenodd" clip-rule="evenodd" d="M0 0C4.27753 0 8.55505 0 12.8326 0C12.8387 0.723716 12.8325 1.44664 12.8138 2.16873C11.0415 2.18759 9.26907 2.19387 7.49663 2.18759C7.49977 5.71414 7.49663 9.24069 7.48724 12.7672C7.4622 12.7799 7.43713 12.7923 7.41209 12.805C6.7357 12.7799 6.05931 12.7799 5.38292 12.805C5.3516 12.7923 5.3203 12.7799 5.28898 12.7672C5.27959 9.24069 5.27645 5.71414 5.27959 2.18759C3.51972 2.18759 1.75987 2.18759 0 2.18759C0 1.45839 0 0.729203 0 0Z" fill="#363636"/>
<path fill-rule="evenodd" clip-rule="evenodd" d="M13.9975 0C14.7302 0 15.463 0 16.1957 0C16.1926 1.48984 16.1957 2.97967 16.2051 4.46948C17.0348 3.55944 18.0558 3.06912 19.2677 2.99851C19.8866 2.96539 20.4972 3.02512 21.0996 3.17766C22.3201 3.5567 23.0434 4.37705 23.2696 5.63871C23.3311 5.9881 23.3623 6.34013 23.3636 6.69478C23.3762 8.71265 23.3762 10.7305 23.3636 12.7484C23.3557 12.7704 23.3431 12.7893 23.326 12.805C22.6071 12.7978 21.8838 12.7914 21.1559 12.7861C21.1315 10.944 21.1315 9.10528 21.1559 7.26997C21.1424 6.89035 21.0892 6.51638 20.9962 6.14789C20.76 5.35126 20.2246 4.93638 19.3898 4.90322C19.2059 4.9238 19.0274 4.9238 18.8543 4.90322C17.9384 4.92623 17.1618 5.2594 16.5245 5.90272C16.418 6.02845 16.3117 6.15417 16.2051 6.2799C16.1957 8.44863 16.1926 10.6174 16.1957 12.7861C15.4807 12.7944 14.7699 12.8008 14.0632 12.805C14.0444 12.7923 14.0257 12.7799 14.0069 12.7672C13.9975 8.51143 13.9943 4.25575 13.9975 0Z" fill="#363636"/>
<path fill-rule="evenodd" clip-rule="evenodd" d="M29.5356 2.99851C29.815 2.99932 30.0998 2.99932 30.3905 2.99851C31.0468 3.04862 31.695 3.19006 32.3351 3.42283C33.6296 3.98687 34.4909 4.94552 34.9185 6.29876C35.1466 7.07271 35.2562 7.86477 35.2473 8.67493C32.498 8.67173 29.7485 8.67493 26.9992 8.68436C27.2395 10.2019 28.1131 11.06 29.6202 11.2586C30.2391 11.3611 30.8435 11.2951 31.4333 11.0605C31.9849 10.8337 32.3982 10.4565 32.6733 9.92902C33.4688 9.91337 34.2641 9.91639 35.0595 9.93845C35.0634 9.94958 35.0696 9.95901 35.0782 9.96674C34.8605 10.6473 34.4909 11.232 33.9697 11.7206C33.0645 12.5368 32.0061 12.9894 30.7944 13.0784C29.9715 13.1469 29.1698 13.0839 28.3895 12.8898C26.3867 12.3182 25.1968 10.9917 24.8197 8.91066C24.6786 7.90928 24.7819 6.93806 25.1297 5.99702C25.7668 4.51692 26.8596 3.57713 28.4083 3.17767C28.7942 3.09825 29.17 3.03853 29.5356 2.99851ZM29.6296 4.79007C30.2454 4.75897 30.8467 4.84384 31.4333 5.04466C32.2511 5.42291 32.7332 6.06097 32.88 6.9588C30.951 6.9588 29.0221 6.9588 27.0931 6.9588C27.3272 5.83666 27.9974 5.14205 29.1035 4.87494C29.2823 4.85053 29.4576 4.82224 29.6296 4.79007Z" fill="#363636"/>
<path fill-rule="evenodd" clip-rule="evenodd" d="M41.2597 2.99851C41.9607 2.96903 42.6559 3.02874 43.3452 3.17766C45.3432 3.71323 46.5299 5.00504 46.9056 7.0531C47.049 7.99848 46.9926 8.93518 46.7365 9.86302C46.2807 11.2695 45.3665 12.2188 43.9934 12.7107C43.3289 12.9562 42.6557 13.085 41.9736 13.0973C40.9748 13.1463 40.0102 12.9766 39.0802 12.5881C37.5715 11.8715 36.704 10.6802 36.478 9.01439C36.3001 7.82969 36.4568 6.69196 36.9477 5.60099C37.6404 4.29643 38.7082 3.48238 40.1511 3.15881C40.5247 3.08767 40.8942 3.03423 41.2597 2.99851ZM41.4288 4.90322C41.6118 4.91248 41.7903 4.91248 41.9643 4.90322C43.606 5.04868 44.5266 5.94131 44.7262 7.58114C44.7359 7.77613 44.7453 7.94888 44.7544 8.09975C44.7478 8.2293 44.729 8.3549 44.698 8.47692C44.6674 9.30066 44.3418 9.99842 43.721 10.5702C43.2424 10.9295 42.7038 11.1369 42.1052 11.1925C41.3623 11.265 40.6609 11.133 40.0008 10.7965C39.3104 10.346 38.8876 9.70781 38.7326 8.88237C38.6144 8.20762 38.6394 7.53493 38.8078 6.86451C39.1642 5.77109 39.9063 5.13305 41.0342 4.95037C41.1689 4.93764 41.3005 4.92191 41.4288 4.90322Z" fill="#363636"/>
<path fill-rule="evenodd" clip-rule="evenodd" d="M53.5662 3.0928C53.8754 3.09039 54.1886 3.09352 54.5056 3.10223C54.5813 3.11534 54.6565 3.13105 54.7311 3.14938C54.735 3.16043 54.7412 3.16986 54.7499 3.17767C54.7249 3.94459 54.7249 4.71149 54.7499 5.47841C54.738 5.49255 54.7286 5.50828 54.7217 5.52556C53.9619 5.31857 53.1947 5.29028 52.4201 5.44069C51.2492 5.71746 50.6511 6.46237 50.6258 7.67543C50.6226 9.37911 50.6132 11.0826 50.5976 12.7861C49.8748 12.7929 49.1484 12.7929 48.4181 12.7861C48.4181 9.56751 48.4181 6.34905 48.4181 3.13052C49.1509 3.13052 49.8836 3.13052 50.6164 3.13052C50.6072 3.69905 50.6166 4.26481 50.6446 4.82779C51.1922 3.9391 51.9784 3.38905 53.0025 3.17767C53.1942 3.15549 53.3821 3.1272 53.5662 3.0928Z" fill="#363636"/>
<path fill-rule="evenodd" clip-rule="evenodd" d="M55.6705 3.13052C56.4767 3.1243 57.2814 3.13058 58.0848 3.14938C59.1676 5.49236 60.2574 7.83082 61.354 10.1648C62.44 7.82158 63.514 5.47684 64.5763 3.13052C65.3844 3.12424 66.1923 3.13052 67 3.14938C65.3528 6.60407 63.7088 10.0616 62.068 13.5216C61.7965 14.1085 61.4237 14.6207 60.9501 15.0585C60.1125 15.7439 59.1575 16.055 58.0848 15.992C57.48 16.0203 56.8882 15.9479 56.3093 15.7752C56.2674 15.7569 56.2298 15.7318 56.1966 15.6997C56.2001 15.0944 56.2001 14.4879 56.1966 13.8799C56.2039 13.8569 56.2195 13.8442 56.2436 13.8422C57.0716 14.0892 57.9013 14.1111 58.733 13.9082C59.7711 13.5804 60.1313 12.8921 59.8134 11.8432C59.7422 11.6476 59.667 11.4528 59.5879 11.2586C58.2985 8.59082 57.002 5.91925 55.6987 3.24367C55.6835 3.20716 55.6741 3.16944 55.6705 3.13052Z" fill="#363636"/>
</g>
</svg>
