<svg width="118" height="18" viewBox="0 0 118 18" fill="none" xmlns="http://www.w3.org/2000/svg">
<path d="M70.4216 9.62794L70.4868 9.48839H75.7724L75.8377 9.62794C75.9029 9.6977 77.4037 13.6047 77.73 14.5117H79.7529C79.6224 14.1628 79.3614 13.4652 79.1003 12.7675L73.8148 0H73.5538L69.0513 11.2326C68.3335 12.9768 67.942 14.0233 67.6809 14.5117H68.5945C68.7903 13.9535 69.4428 12.0698 69.6385 11.5814C69.7038 11.5117 70.3563 9.6977 70.4216 9.62794ZM70.8131 8.58142C70.8784 8.51165 71.4004 7.18606 71.9224 5.86048C72.4445 4.53489 72.9665 3.20931 73.0317 3.13954L73.2275 2.65117L73.4233 3.13954C73.5538 3.41861 75.4461 8.37211 75.5114 8.51165L75.6419 8.86049H70.7479L70.8131 8.58142Z" fill="#363636"/>
<path d="M85.1036 7.81391C85.1689 7.88368 89.4104 13.6744 89.9977 14.4418H92.2163C91.9553 14.093 91.5638 13.5349 90.9765 12.8372C90.9765 12.8372 87.3223 8.02322 87.1917 7.88368L86.9307 7.6046L87.3223 7.53484C89.6714 6.9767 90.7807 5.86042 90.7807 3.97669C90.7807 2.6511 90.1282 1.60459 89.0189 0.976679C88.1706 0.488305 87.1917 0.279003 84.0596 0.279003H81.841V14.4418H83.6681V7.67438H85.0384L85.1036 7.81391ZM83.6681 0.767374H83.8638C83.8638 0.767374 84.1248 0.767374 85.0384 0.767374C87.3875 0.837142 88.7578 1.95342 88.7578 3.90692C88.7578 5.93018 87.3223 7.25577 85.0384 7.25577H83.6681V0.767374Z" fill="#363636"/>
<path d="M117.6 0.209252H116.882C116.36 1.04646 112.902 6.69764 112.771 6.83718L112.575 7.18602L112.38 6.83718C112.249 6.62788 108.791 1.04646 108.269 0.209252H105.985L107.29 2.30228C108.53 4.25578 110.879 8.02322 110.944 8.09299L111.009 8.16276V8.23253C111.009 8.3023 111.009 13.2558 111.009 14.4418H112.836C112.836 13.2558 112.836 8.09299 112.836 8.02323V7.95345L112.902 7.88369C112.967 7.81393 115.12 4.32553 116.23 2.51158C116.817 1.46506 117.339 0.627858 117.6 0.209252Z" fill="#363636"/>
<path d="M105.789 7.39531C105.789 5.02321 104.876 3.06972 103.244 1.74414C101.874 0.697623 99.851 0.209252 96.5231 0.209252H93.9782V14.4418H96.5231C99.9163 14.4418 101.613 14.2325 103.309 12.907C104.876 11.6511 105.789 9.69764 105.789 7.39531ZM96.9799 13.9535C96.1316 13.9535 95.9358 13.9535 95.9358 13.9535H95.7401V0.697623H95.9358C95.9358 0.697623 96.1316 0.697623 97.3714 0.697623C101.352 0.697623 103.897 3.27903 103.897 7.53485C103.897 11.7209 101.482 13.9535 96.9799 13.9535Z" fill="#363636"/>
<path d="M65.6581 14.4418C65.6581 14.0232 65.6581 13.1163 65.6581 11.7209V0.209252H63.831V6.83718H57.1751V0.209252H55.4785V14.4418H57.1751V7.39531H63.7658V14.4418H65.6581Z" fill="#363636"/>
<path d="M31.8566 14.4418H33.6837V0.209252H31.8566V6.83718H25.266V0.209252H23.4389C23.4389 0.627858 23.4389 1.6046 23.4389 2.86041V11.7209C23.4389 13.1163 23.4389 14.0232 23.4389 14.4418H25.266V7.39531H31.8566V14.4418Z" fill="#363636"/>
<path d="M37.7946 3.13948C38.0557 3.41855 45.9514 13.7442 46.7997 14.7907H46.9302V0.279003H46.2776C46.2776 1.81389 46.2776 10.1162 46.2776 10.4651V11.1628L45.8861 10.6046C45.6251 10.3255 38.8387 1.25575 38.0557 0.279003H36.7506V14.5116H37.4031C37.4031 12.907 37.4031 3.69762 37.4031 3.34878V2.65111L37.7946 3.13948Z" fill="#363636"/>
<path d="M3.99317 11.7209C3.99317 11.8604 3.99317 12.0698 3.99317 12.0698C3.86266 15 1.77454 16.6744 0.926244 17.3721L0.795737 17.5116C0.795737 17.5116 0.795737 17.5116 0.730483 17.5814C0.665229 17.7209 0.665229 17.8605 0.599976 18C3.07962 16.6046 4.84147 15.2791 5.62451 13.1163C5.82027 12.5581 6.01603 11.5116 6.01603 10.8139C6.01603 10.6744 6.01603 1.81391 6.01603 0.209252H4.05842L3.99317 11.7209Z" fill="#363636"/>
<path d="M14.6949 0C10.7797 0 7.97381 3.06978 7.97381 7.3256C7.97381 11.6512 10.7797 14.7907 14.6949 14.7907C18.6102 14.7907 21.4161 11.6512 21.4161 7.3256C21.4161 3.06978 18.5449 0 14.6949 0ZM14.6949 14.4419C11.7585 14.4419 9.99668 11.7907 9.99668 7.39536C9.99668 3 11.7585 0.348838 14.6949 0.348838C17.6314 0.348838 19.3932 3 19.3932 7.39536C19.3932 11.8605 17.6314 14.4419 14.6949 14.4419Z" fill="#363636"/>
</svg>
