<svg width="158" height="10" viewBox="0 0 158 10" fill="none" xmlns="http://www.w3.org/2000/svg">
<path d="M4.11992 9.94871C0.464499 9.94871 0.400123 7.08567 0.400123 5.98185V0.773174C0.400123 0.456974 0.374933 0.0372907 1.02709 0.0372907H2.91637C3.52934 0.0372907 3.49015 0.485719 3.49015 0.773174V5.98185C3.49015 6.35266 3.55733 7.34725 4.88683 7.34725H8.05523C9.35953 7.34725 9.4351 6.35266 9.4351 5.98185V0.773174C9.4351 0.485719 9.39872 0.0372907 10.0089 0.0372907H11.9122C12.6035 0.0372907 12.5419 0.485719 12.5419 0.773174V5.98185C12.5419 7.08567 12.4776 9.94871 8.80814 9.94871" fill="#363636"/>
<path d="M21.627 9.31982C20.3367 7.53473 18.495 5.28683 16.6169 2.91246V9.2537C16.6169 9.52966 16.6841 9.94934 16.0432 9.94934H14.2798C13.6417 9.94934 13.7172 9.52966 13.7172 9.2537V0.773803C13.7172 0.486349 13.6892 0.0379203 14.2798 0.0379203H17.7169C18.6882 0.0379203 20.0708 2.04723 20.9777 3.37239C21.6774 4.38423 22.9705 5.90486 23.8382 7.04605V0.773803C23.8382 0.486349 23.799 0.0379203 24.44 0.0379203H26.3545C26.9702 0.0379203 26.931 0.486349 26.931 0.773803V9.94934H23.4044C22.6487 9.94934 22.3156 10.0011 21.627 9.31982Z" fill="#363636"/>
<path d="M36.156 7.34214C37.701 7.34214 37.589 5.81863 37.589 5.12299C37.589 2.78599 36.9481 2.694 35.9265 2.694H31.0703V7.34214H36.156ZM28.0894 9.95222V0.055174H36.6066C37.1272 0.055174 40.6147 -0.00806592 40.6147 3.75471C40.6147 7.60372 41.0233 9.95222 36.6822 9.95222H32.0919L31.0955 7.87968V9.95222" fill="#363636"/>
<path d="M43.9515 0.118368H51.797C52.4631 0.118368 52.3735 0.563922 52.3735 1.39179C52.3735 2.16217 52.4743 2.59622 51.797 2.59622H45.5973C45.4322 2.59622 44.8724 2.50424 44.8724 3.10789C44.8724 3.71155 44.7576 3.95013 45.3818 3.95013H50.8649C50.8649 3.95013 51.657 5.49951 51.7466 5.76109C51.8753 5.99681 51.8613 6.22102 51.3771 6.22102H45.7009L44.8192 4.4618V7.06039C44.8192 7.66404 45.3454 7.54618 45.4965 7.54618H51.9369C52.5779 7.54618 52.5247 8.00324 52.5247 8.75062C52.5247 9.55549 52.5779 9.99817 51.9369 9.99817H43.7836C43.1063 9.99817 41.7796 9.78833 41.7796 7.6123V2.15067C41.7796 1.58726 42.0734 0.118368 43.9515 0.118368Z" fill="#363636"/>
<path d="M61.3266 2.66619H57.506C56.8707 2.66619 56.893 2.89041 56.893 3.08875V4.85947H60.8284C62.7344 4.85947 62.7344 4.3708 62.7344 3.85913C62.7344 2.83579 62.6589 2.66619 61.3266 2.66619ZM54.4916 0.0532338H63.0787C64.2291 0.0532338 65.9 0.041736 65.9 3.2296C65.9 5.31652 65.469 5.42 64.5481 6.0639C66.096 6.33986 65.8916 8.37216 65.8916 9.42424C65.8916 9.96178 65.7013 9.95028 65.5446 9.95028H63.0283C62.5021 9.95028 62.6309 9.09654 62.6309 8.65099C62.6309 7.42931 61.9675 7.48393 61.71 7.48393H58.0042C57.6488 6.85153 56.9574 5.43438 56.9574 5.43438V9.5421C56.9574 9.89854 56.6103 9.95028 56.4844 9.95028H53.957C54.0941 9.95028 53.6967 9.97615 53.6967 9.61971V0.906973C53.6967 0.288946 54.1193 0.0532338 54.4916 0.0532338Z" fill="#363636"/>
<path d="M79.6639 2.85964L78.0797 5.82617L78.2197 5.96989H81.1726L81.3265 5.82617C81.2229 5.60195 79.9466 3.10972 79.8179 2.84527L79.6639 2.85964ZM80.6855 0.120199C81.3125 0.120199 81.9227 0.407654 82.5888 1.73282C83.0395 2.67567 86.1575 8.46212 86.8068 9.6723V10H83.5601L82.6252 8.26665H78.6787C78.6787 8.26665 78.0154 6.70578 77.825 6.27459C77.5815 6.6799 76.2772 9.22675 75.8266 10H72.5714V9.79016C73.2348 8.50524 77.7718 0.120199 77.7718 0.120199" fill="#363636"/>
<path d="M95.3223 2.66619H91.5018C90.8636 2.66619 90.8888 2.89041 90.8888 3.08875V4.85947H94.8241C96.7302 4.85947 96.7302 4.3708 96.7302 3.85913C96.7302 2.83579 96.6546 2.66619 95.3223 2.66619ZM88.4873 0.0532338H97.0745C98.2248 0.0532338 99.8986 0.041736 99.8986 3.2296C99.8986 5.31652 99.4676 5.42 98.5439 6.0639C100.089 6.33986 99.8846 8.37216 99.8846 9.42424C99.8846 9.96178 99.6943 9.95028 99.5403 9.95028H97.0241C96.4979 9.95028 96.6266 9.09654 96.6266 8.65099C96.6266 7.42931 95.9633 7.48393 95.7058 7.48393H92C91.6417 6.85153 90.9504 5.43438 90.9504 5.43438V9.5421C90.9504 9.89854 90.6089 9.95028 90.4802 9.95028H87.9499C88.0899 9.95028 87.6952 9.97615 87.6952 9.61971V0.906973C87.6952 0.288946 88.1178 0.0532338 88.4873 0.0532338Z" fill="#363636"/>
<path d="M107.401 9.94871C106.76 8.71554 104.982 5.31495 103.782 3.08718V9.25307C103.782 9.52903 103.818 9.94871 103.211 9.94871H101.47C100.817 9.94871 100.868 9.52903 100.868 9.25307V0.773175C100.868 0.485721 100.831 0.0516647 101.47 0.0516647H104.473C104.921 0.0516647 105.556 -0.054693 106.275 1.41707C106.813 2.59563 107.952 5.04187 108.73 6.33829C109.533 5.04187 110.698 2.59563 111.235 1.41707C111.938 -0.054693 112.562 0.0516647 113.06 0.0516647H116.049C116.665 0.0516647 116.601 0.485721 116.601 0.773175V9.25307C116.601 9.52903 116.687 9.94871 116.049 9.94871H114.3C113.662 9.94871 113.712 9.52903 113.712 9.25307V3.08718C112.5 5.31495 110.734 8.71554 110.068 9.94871" fill="#363636"/>
<path d="M126.183 7.42782C127.63 7.42782 127.577 5.89569 127.577 4.86948C127.577 3.94962 127.781 2.5066 125.903 2.5066H122.718C120.854 2.5066 121.072 3.94962 121.072 4.86948C121.072 5.89569 120.983 7.42782 122.427 7.42782H126.183ZM120.459 9.97466C117.61 9.97466 117.736 6.83566 117.736 4.80624C117.736 2.94066 117.532 0.0287452 121.098 0H127.426C131.003 0 130.771 2.95216 130.771 4.80624C130.771 6.83566 130.913 9.97466 128.022 9.97466" fill="#363636"/>
<path d="M135.535 9.94871C131.877 9.94871 131.816 7.08567 131.816 5.98185V0.773174C131.816 0.456974 131.79 0.0372907 132.442 0.0372907H134.335C134.945 0.0372907 134.908 0.485719 134.908 0.773174V5.98185C134.908 6.35266 134.973 7.34725 136.302 7.34725H139.471C140.775 7.34725 140.85 6.35266 140.85 5.98185V0.773174C140.85 0.485719 140.811 0.0372907 141.424 0.0372907H143.328C144.019 0.0372907 143.957 0.485719 143.957 0.773174V5.98185C143.957 7.08567 143.893 9.94871 140.224 9.94871" fill="#363636"/>
<path d="M152.821 2.66619H149C148.362 2.66619 148.387 2.89041 148.387 3.08875V4.85947H152.323C154.229 4.85947 154.229 4.3708 154.229 3.85913C154.229 2.83579 154.153 2.66619 152.821 2.66619ZM145.983 0.0532338H154.573C155.723 0.0532338 157.4 0.041736 157.4 3.2296C157.4 5.31652 156.963 5.42 156.043 6.0639C157.59 6.33986 157.386 8.37216 157.386 9.42424C157.386 9.96178 157.196 9.95028 157.039 9.95028H154.523C153.999 9.95028 154.125 9.09654 154.125 8.65099C154.125 7.42931 153.462 7.48393 153.207 7.48393H149.499C149.143 6.85153 148.452 5.43438 148.452 5.43438V9.5421C148.452 9.89854 148.105 9.95028 147.979 9.95028H145.451C145.588 9.95028 145.194 9.97615 145.194 9.61971V0.906973C145.194 0.288946 145.616 0.0532338 145.983 0.0532338Z" fill="#363636"/>
</svg>
