<svg width="129" height="12" viewBox="0 0 129 12" fill="none" xmlns="http://www.w3.org/2000/svg">
<path fill-rule="evenodd" clip-rule="evenodd" d="M45.2926 4.96641C45.7648 5.1515 46.3651 5.24507 47.065 5.24507C47.7762 5.24507 48.348 5.1515 48.8402 4.96641C49.3409 4.79555 49.5742 4.57384 49.5742 4.32976C49.5742 4.0694 49.3409 3.866 48.8402 3.69514C48.348 3.50801 47.7762 3.41648 47.065 3.43479C46.3651 3.41648 45.7847 3.50801 45.2926 3.69514C44.7975 3.866 44.5671 4.0694 44.5671 4.32976C44.5671 4.57384 44.7975 4.79555 45.2926 4.96641Z" fill="#363636"/>
<path fill-rule="evenodd" clip-rule="evenodd" d="M80.9368 4.94399C81.409 5.11485 82.0122 5.20638 82.7149 5.20638C83.392 5.20638 83.9951 5.11485 84.4873 4.94399C84.988 4.75889 85.2213 4.55142 85.2213 4.31141C85.2213 4.04902 84.988 3.82731 84.4873 3.66052C83.9951 3.4917 83.392 3.3961 82.7149 3.3961C82.0122 3.3961 81.4375 3.4917 80.9368 3.66052C80.4446 3.82731 80.2113 4.04902 80.2113 4.31141C80.2113 4.55142 80.4446 4.75889 80.9368 4.94399Z" fill="#363636"/>
<path fill-rule="evenodd" clip-rule="evenodd" d="M126.894 9.90707C126.894 9.90707 96.5158 9.90707 96.328 9.90707C89.9184 9.32331 89.3266 7.33403 89.1502 6.62009C89.1502 6.62009 89.1502 6.61602 89.1502 6.61399C89.1502 6.56924 89.1246 6.18074 89.1161 6.0526C89.1218 6.03226 89.1331 6.01598 89.1388 5.99564C89.7021 3.84568 92.0293 2.64967 96.2427 2.3344C96.4134 2.3344 126.817 2.3344 126.817 2.3344C127.54 2.3344 128.118 1.91742 128.118 1.40078C128.118 0.88414 127.54 0.467165 126.817 0.467165H96.1516C96.1061 0.467165 96.0663 0.471233 96.0236 0.473267C89.21 0.971603 87.1218 3.55888 86.5812 5.64376C86.5186 5.75563 86.4902 5.87767 86.4987 6.00785L86.5613 6.82959C86.5613 6.86621 86.5613 6.8601 86.567 6.89265C86.7633 7.71643 87.1957 8.44054 87.8529 9.06499L82.0663 6.76247L65.6652 0.251558C65.2555 0.0115439 64.6637 -0.037273 64.1801 0.166129L42.1118 9.36602V1.10381C42.1118 0.589207 41.5258 0.170197 40.806 0.170197C40.6808 0.170197 40.5642 0.18647 40.4532 0.208844C40.274 0.212912 40.0947 0.241388 39.924 0.300375L20.3508 7.05334C20.2569 7.08588 20.1744 7.12656 20.0976 7.17131L17.998 7.91373L20.2541 8.7253C20.4447 8.79446 20.6467 8.82294 20.8487 8.82294C21.062 8.83107 21.2811 8.80667 21.4859 8.73547L39.5002 2.5195V10.8407C39.5002 11.1194 39.6708 11.3655 39.9411 11.5363C40.3423 11.876 41.0364 11.9736 41.594 11.7377L49.3864 8.49139C49.4006 8.49343 49.412 8.49749 49.4262 8.49749L53.8273 6.6445H53.8188L64.8316 2.05574L76.3992 6.6445H56.0834L51.6111 8.5097H81.1019L89.5713 11.8821C90.2 12.1323 90.9966 11.9716 91.3437 11.5201C91.4802 11.3451 91.5257 11.1519 91.4973 10.9648C92.7804 11.3431 94.3081 11.6096 96.072 11.7662C96.1232 11.7702 96.1744 11.7763 96.2313 11.7763H126.894C127.614 11.7763 128.2 11.3594 128.2 10.8407C128.2 10.324 127.614 9.90707 126.894 9.90707Z" fill="#363636"/>
<path fill-rule="evenodd" clip-rule="evenodd" d="M2.1431 0.100957C1.50298 -0.132956 0.714933 0.0541747 0.393454 0.51183C0.302415 0.63794 0.262586 0.772185 0.256896 0.904397C0.222757 0.985758 0.199997 1.07119 0.199997 1.16068V10.8955C0.199997 11.4122 0.783212 11.8312 1.50583 11.8312C2.22276 11.8312 2.80882 11.4122 2.80882 10.8955V2.43398L16.7434 7.46006L19.6737 6.42881L2.1431 0.100957Z" fill="#363636"/>
</svg>
