<svg width="161" height="12" viewBox="0 0 161 12" fill="none" xmlns="http://www.w3.org/2000/svg">
<path fill-rule="evenodd" clip-rule="evenodd" d="M19.2192 0.312333H21.3255V11.6889H19.2192V0.312333ZM61.8107 2.00784L64.132 7.02927H59.3271L61.764 2.00784H61.8107ZM60.7456 0.312333L54.8512 11.6889H57.0288L58.6376 8.39929H64.8884L66.4509 11.6889H68.7015L63.1125 0.312333H60.7456ZM42.7047 0.312333V5.02144H50.825V0.312333H52.8843V11.6889H50.825V6.37194H42.7047V11.6889H40.5745V0.312333H42.7047ZM27.8609 2.51084C26.8915 3.30715 26.4167 4.43261 26.4167 5.88699C26.4167 9.05516 28.098 10.649 31.5307 10.649C33.9447 10.649 35.4365 9.61083 36.0049 7.49887H38.0415C37.6621 9.31605 36.5493 10.6154 34.7261 11.3588C33.7076 11.7925 32.5242 12 31.2233 12C29.2804 12 27.6709 11.5319 26.4167 10.6154C24.9486 9.54085 24.2388 7.98163 24.2388 5.93868C24.2388 4.17343 24.8769 2.73491 26.1797 1.6626C27.4825 0.535913 29.2584 0 31.46 0C33.3523 0 34.8921 0.3984 36.0756 1.17715C37.093 1.83449 37.6851 2.68468 37.8981 3.72213H35.8396C35.4135 2.12926 33.9447 1.35051 31.46 1.35051C29.9918 1.35051 28.8067 1.73111 27.8609 2.51084ZM13.6542 2.12926L9.27468 11.6889H7.19143L2.85957 2.12926H2.76489L2.85957 11.6889H0.799988V0.312333H3.80602L8.20855 9.92218H8.30423L12.7078 0.312333H15.7145V11.6889H13.6542L13.7029 2.12926H13.6542ZM154.573 1.35051C152.159 1.35051 150.975 2.00784 150.975 3.34152C150.975 4.08663 151.613 4.55477 152.845 4.76177L157.297 5.50566C159.617 5.93868 160.8 6.94394 160.8 8.53558C160.8 9.78247 160.138 10.6663 158.764 11.272C157.698 11.7735 156.349 12 154.738 12C152.727 12 151.139 11.6192 150.028 10.9087C148.961 10.2165 148.465 9.26265 148.465 8.01772H150.43C150.43 8.96934 150.904 9.66251 151.803 10.1292C152.56 10.4944 153.508 10.6663 154.691 10.6663C157.415 10.6663 158.764 10.0431 158.764 8.74454C158.764 8.15547 158.526 7.72318 158.078 7.46254C157.651 7.20263 156.775 6.94394 155.473 6.75352L152.277 6.19884C150.075 5.81799 148.961 4.93415 148.961 3.51464C148.961 2.56302 149.411 1.74867 150.24 1.12473C151.21 0.363291 152.56 0 154.337 0C158.172 0 160.184 1.21275 160.422 3.6363H158.432C158.408 2.85706 157.934 2.25019 157.106 1.83449C156.419 1.52435 155.568 1.35051 154.573 1.35051ZM135.751 1.61091H140.96C142.853 1.61091 143.801 2.2502 143.801 3.51464C143.801 4.84711 142.735 5.50566 140.653 5.50566H135.751V1.61091ZM133.667 0.312333V11.6889H135.751V6.80642H140.843C142.688 6.80642 143.634 7.46254 143.634 8.83085C143.634 10.2165 143.753 11.1678 143.967 11.6889H146.571V11.4285C146.051 11.2203 145.812 10.8397 145.812 10.3035L145.648 8.24203C145.622 7.53227 145.411 6.97759 145.031 6.66623C144.818 6.45777 144.393 6.25028 143.801 6.07716C145.22 5.47201 145.931 4.55477 145.931 3.37566C145.931 1.3154 144.227 0.312333 140.843 0.312333H133.667ZM123.323 1.35051C124.98 1.35051 126.28 1.81864 127.276 2.70077C128.246 3.54877 128.719 4.64083 128.719 5.98988C128.719 7.35965 128.246 8.48511 127.276 9.31604C126.28 10.2165 124.98 10.649 123.323 10.649C121.617 10.649 120.315 10.2165 119.367 9.31604C118.398 8.48511 117.924 7.35965 117.924 5.98988C117.924 4.64083 118.398 3.54877 119.367 2.70077C120.362 1.81864 121.664 1.35051 123.323 1.35051ZM117.355 2.07684C116.29 3.16817 115.744 4.46626 115.744 5.98988C115.744 7.53227 116.29 8.83085 117.355 9.92218C118.703 11.3071 120.669 12 123.323 12C125.973 12 127.937 11.3071 129.241 9.92218C130.354 8.83085 130.897 7.53227 130.897 5.98988C130.897 4.46626 130.354 3.16817 129.241 2.07684C127.937 0.692933 125.973 0 123.323 0C120.669 0 118.703 0.692933 117.355 2.07684ZM105.281 0.312333V5.81799L112.785 0.312333H115.698L109.234 4.93415L115.865 11.6889H113.186L107.697 5.97305L105.281 7.70636V11.6889H103.15V0.312333H105.281ZM87.1684 0.312333V10.3198H95.0764V11.6889H85.1328V0.312333H87.1684ZM82.1972 1.6626H72.9627V5.15992H81.4637V6.51019H72.9627V10.3198H82.3148V11.6889H70.8801V0.312333H82.1972V1.6626Z" fill="#363636"/>
</svg>
