<svg width="127" height="24" viewBox="0 0 127 24" fill="none" xmlns="http://www.w3.org/2000/svg">
<rect width="24" height="24" rx="4" fill="white"/>
<path d="M13.397 6.28576L6.46878 10.2858C4.5556 11.3903 3.9001 13.8367 5.00467 15.7499C6.1093 17.6631 8.5557 18.3185 10.4688 17.214L15.6649 14.214C16.5528 13.7014 17.2104 13.3047 17.6784 12.5959C17.9827 12.135 18.6032 12.0081 19.0641 12.3124C19.5249 12.6167 19.6519 13.2371 19.3476 13.698C18.5835 14.8553 17.5091 15.4586 16.6649 15.946L11.4688 18.946C8.59893 20.6029 4.92942 19.6195 3.27262 16.7499C1.61577 13.8801 2.59902 10.2106 5.46878 8.55371L14.129 3.55371L15.129 5.28576C15.5863 6.07778 15.9817 6.75808 16.2221 7.34299C16.4734 7.95467 16.6149 8.59809 16.4284 9.29419C16.2419 9.99029 15.7976 10.4767 15.2741 10.8808C14.7735 11.2671 14.0909 11.6586 13.2989 12.1159L8.96878 14.6159C8.49048 14.892 7.87889 14.7282 7.60275 14.2499C7.32661 13.7716 7.49048 13.16 7.96878 12.8838L12.2989 10.3838C13.1399 9.8983 13.6826 9.58236 14.052 9.29726C14.3983 9.02998 14.4689 8.88057 14.4968 8.7766C14.5246 8.67264 14.5382 8.50794 14.3719 8.10332C14.1945 7.67169 13.8825 7.12674 13.397 6.28576Z" fill="#1F202A"/>
<path d="M19.8611 9.48191C20.3394 9.20577 20.951 9.36965 21.2271 9.84794C21.5032 10.3262 21.3394 10.9378 20.8611 11.214C20.3828 11.4901 19.7712 11.3262 19.4951 10.8479C19.2189 10.3696 19.3828 9.75806 19.8611 9.48191Z" fill="#E68A19"/>
<path d="M120.557 19.3828C119.866 19.3828 119.243 19.2597 118.689 19.0135C118.14 18.7625 117.705 18.3932 117.383 17.9055C117.065 17.4179 116.907 16.8165 116.907 16.1016C116.907 15.486 117.02 14.977 117.248 14.5746C117.475 14.1721 117.785 13.8501 118.178 13.6087C118.571 13.3672 119.014 13.1849 119.506 13.0618C120.003 12.9339 120.517 12.8416 121.047 12.7848C121.687 12.7185 122.205 12.6593 122.603 12.6072C123 12.5504 123.289 12.4652 123.469 12.3516C123.654 12.2332 123.746 12.0509 123.746 11.8047V11.7621C123.746 11.227 123.588 10.8127 123.27 10.5192C122.953 10.2256 122.496 10.0788 121.9 10.0788C121.27 10.0788 120.77 10.2161 120.401 10.4908C120.036 10.7654 119.79 11.0897 119.662 11.4638L117.262 11.1229C117.451 10.46 117.764 9.90601 118.199 9.46094C118.635 9.01113 119.168 8.67495 119.797 8.45242C120.427 8.22514 121.123 8.11151 121.885 8.11151C122.411 8.11151 122.934 8.17306 123.455 8.29617C123.976 8.41927 124.452 8.62287 124.883 8.90696C125.313 9.18632 125.659 9.56747 125.92 10.0504C126.185 10.5334 126.317 11.1371 126.317 11.8615V19.1626H123.846V17.6641H123.76C123.604 17.9671 123.384 18.2512 123.1 18.5163C122.821 18.7768 122.468 18.9875 122.042 19.1484C121.62 19.3047 121.125 19.3828 120.557 19.3828ZM121.225 17.4936C121.741 17.4936 122.188 17.3918 122.567 17.1882C122.946 16.9799 123.237 16.7053 123.441 16.3643C123.649 16.0234 123.753 15.6518 123.753 15.2493V13.9638C123.673 14.0301 123.536 14.0916 123.341 14.1484C123.152 14.2053 122.939 14.255 122.702 14.2976C122.465 14.3402 122.231 14.3781 121.999 14.4112C121.767 14.4444 121.566 14.4728 121.395 14.4964C121.012 14.5485 120.669 14.6338 120.366 14.7521C120.063 14.8705 119.823 15.0362 119.648 15.2493C119.473 15.4576 119.385 15.7275 119.385 16.0589C119.385 16.5324 119.558 16.8899 119.904 17.1314C120.25 17.3729 120.69 17.4936 121.225 17.4936Z" fill="#1F202A"/>
<path d="M109.684 19.1626V8.25355H112.177V10.0717H112.29C112.489 9.442 112.83 8.95668 113.313 8.61577C113.801 8.27012 114.357 8.0973 114.982 8.0973C115.124 8.0973 115.283 8.1044 115.458 8.11861C115.638 8.12808 115.787 8.14465 115.905 8.16832V10.5334C115.796 10.4955 115.624 10.4624 115.387 10.4339C115.155 10.4008 114.93 10.3842 114.712 10.3842C114.243 10.3842 113.822 10.486 113.448 10.6896C113.079 10.8885 112.787 11.1655 112.574 11.5206C112.361 11.8757 112.255 12.2853 112.255 12.7493V19.1626H109.684Z" fill="#1F202A"/>
<path d="M104.469 14.5746V8.25355H107.04V19.1626H104.547V17.2237H104.433C104.187 17.8345 103.782 18.334 103.219 18.7223C102.66 19.1106 101.971 19.3047 101.152 19.3047C100.437 19.3047 99.8051 19.1461 99.2558 18.8288C98.7113 18.5069 98.2852 18.0405 97.9774 17.4297C97.6696 16.8142 97.5158 16.0708 97.5158 15.1996V8.25355H100.087V14.8018C100.087 15.4931 100.276 16.0424 100.655 16.4496C101.034 16.8568 101.531 17.0604 102.146 17.0604C102.525 17.0604 102.892 16.968 103.247 16.7834C103.602 16.5987 103.894 16.3241 104.121 15.9595C104.353 15.5902 104.469 15.1286 104.469 14.5746Z" fill="#1F202A"/>
<path d="M88.368 8.25355L90.5697 12.2805L92.807 8.25355H95.5271L92.2388 13.7081L95.5839 19.1626H92.878L90.5697 15.2351L88.2828 19.1626H85.5555L88.8794 13.7081L85.6408 8.25355H88.368Z" fill="#1F202A"/>
<path d="M81.0509 14.5746V8.25355H83.6219V19.1626H81.129V17.2237H81.0154C80.7692 17.8345 80.3644 18.334 79.8009 18.7223C79.2422 19.1106 78.5533 19.3047 77.7341 19.3047C77.0192 19.3047 76.3871 19.1461 75.8378 18.8288C75.2933 18.5069 74.8672 18.0405 74.5594 17.4297C74.2517 16.8142 74.0978 16.0708 74.0978 15.1996V8.25355H76.6688V14.8018C76.6688 15.4931 76.8582 16.0424 77.237 16.4496C77.6158 16.8568 78.1129 17.0604 78.7285 17.0604C79.1073 17.0604 79.4742 16.968 79.8293 16.7834C80.1844 16.5987 80.4756 16.3241 80.7029 15.9595C80.9349 15.5902 81.0509 15.1286 81.0509 14.5746Z" fill="#1F202A"/>
<path d="M62.8833 19.1626V4.61719H65.5182V16.9538H71.9245V19.1626H62.8833Z" fill="#1F202A"/>
<path d="M52.4501 4.61719H55.0637V14.8445C55.059 15.782 54.8601 16.5893 54.4671 17.2663C54.0741 17.9387 53.5249 18.4572 52.8194 18.8217C52.1186 19.1816 51.3019 19.3615 50.3691 19.3615C49.5168 19.3615 48.7498 19.21 48.068 18.907C47.3909 18.5992 46.8535 18.1447 46.4557 17.5433C46.058 16.942 45.8592 16.1939 45.8592 15.299H48.4799C48.4846 15.692 48.5699 16.0305 48.7356 16.3146C48.906 16.5987 49.1404 16.8165 49.4387 16.968C49.737 17.1196 50.0803 17.1953 50.4685 17.1953C50.8899 17.1953 51.2474 17.1077 51.541 16.9325C51.8345 16.7526 52.0571 16.4875 52.2086 16.1371C52.3648 15.7867 52.4453 15.3558 52.4501 14.8445V4.61719Z" fill="#1F202A"/>
<path d="M34.563 19.1626V4.61719H44.0232V6.82599H37.1979V10.7749H43.5332V12.9837H37.1979V16.9538H44.08V19.1626H34.563Z" fill="#1F202A"/>
</svg>
