<svg width="132" height="24" viewBox="0 0 132 24" fill="none" xmlns="http://www.w3.org/2000/svg">
<path d="M2.7507 17.1243C1.20532 14.3744 2.12242 10.858 4.7991 9.27036L13.6845 4L16.0163 8.14933C16.6602 9.29514 16.2781 10.7603 15.1628 11.4218L8.7007 15.2548C8.03152 15.6517 7.17586 15.4162 6.78951 14.7287C6.40316 14.0412 6.63244 13.1621 7.30161 12.7652L13.3598 9.17177L12.6603 7.92697L6.19819 11.76C4.85984 12.5538 4.40129 14.312 5.17399 15.6869L2.7507 17.1243Z" fill="#252829"/>
<path d="M3.60293 18.2785L6.19772 16.7394C7.03491 17.235 8.0994 17.2712 8.99636 16.7392L17.8817 11.4688L19.2808 13.9584L10.3954 19.2288C8.13713 20.5683 5.34782 20.107 3.60293 18.2785Z" fill="#252829"/>
<path d="M21.8123 10.7971C22.1987 11.4846 21.9694 12.3637 21.3002 12.7606C20.6311 13.1575 19.7754 12.922 19.389 12.2345C19.0027 11.547 19.232 10.6679 19.9011 10.271C20.5703 9.87407 21.426 10.1096 21.8123 10.7971Z" fill="#E68A19"/>
<path d="M129.558 18.77L121.678 8.25L122.878 7.91V18.77H120.258V5.15H122.598L130.298 15.43L129.278 15.57V5.15H131.898V18.77H129.558Z" fill="#252829"/>
<path d="M110.903 19.01C109.529 19.01 108.323 18.71 107.283 18.11C106.243 17.4967 105.436 16.6633 104.863 15.61C104.289 14.5567 104.003 13.3633 104.003 12.03C104.003 10.99 104.169 10.0367 104.503 9.17C104.849 8.30333 105.329 7.55667 105.943 6.93C106.569 6.29 107.303 5.79667 108.143 5.45C108.983 5.10333 109.903 4.93 110.903 4.93C112.463 4.93 113.749 5.26333 114.763 5.93C115.776 6.58333 116.569 7.49 117.143 8.65L114.703 9.57C114.209 8.79667 113.649 8.25667 113.023 7.95C112.409 7.63 111.703 7.47 110.903 7.47C110.089 7.47 109.363 7.66333 108.723 8.05C108.096 8.42333 107.596 8.95 107.223 9.63C106.863 10.31 106.683 11.11 106.683 12.03C106.683 12.91 106.863 13.69 107.223 14.37C107.596 15.05 108.096 15.5833 108.723 15.97C109.363 16.3433 110.089 16.53 110.903 16.53C111.676 16.53 112.363 16.3767 112.963 16.07C113.576 15.75 114.063 15.3167 114.423 14.77C114.783 14.21 114.976 13.5633 115.003 12.83L115.663 13.89H110.723V11.51H117.363C117.416 11.6967 117.456 11.9033 117.483 12.13C117.509 12.3433 117.523 12.5567 117.523 12.77C117.523 13.6767 117.349 14.51 117.003 15.27C116.656 16.03 116.176 16.69 115.563 17.25C114.963 17.81 114.263 18.2433 113.463 18.55C112.676 18.8567 111.823 19.01 110.903 19.01Z" fill="#252829"/>
<path d="M101.171 18.77H98.5508V5.15H101.171V18.77Z" fill="#252829"/>
<path d="M90.7822 19.09C90.0222 19.09 89.3022 18.9767 88.6222 18.75C87.9422 18.5233 87.3288 18.17 86.7822 17.69C86.2488 17.21 85.7955 16.5833 85.4222 15.81L87.5022 14.55C87.9155 15.2567 88.4022 15.7833 88.9622 16.13C89.5222 16.4767 90.1688 16.65 90.9022 16.65C91.5688 16.65 92.0755 16.51 92.4222 16.23C92.7688 15.9367 92.9422 15.55 92.9422 15.07C92.9422 14.7633 92.8622 14.5033 92.7022 14.29C92.5555 14.0633 92.2888 13.85 91.9022 13.65C91.5155 13.45 90.9555 13.27 90.2222 13.11C89.1288 12.8433 88.2688 12.51 87.6422 12.11C87.0288 11.71 86.5955 11.2433 86.3422 10.71C86.0888 10.1633 85.9622 9.56333 85.9622 8.91C85.9622 8.12333 86.1488 7.43667 86.5222 6.85C86.9088 6.25 87.4555 5.77667 88.1622 5.43C88.8688 5.08333 89.7088 4.91 90.6822 4.91C91.8022 4.91 92.7422 5.13 93.5022 5.57C94.2622 5.99667 94.8822 6.57667 95.3622 7.31L93.2822 8.73C92.9088 8.25 92.4822 7.91 92.0022 7.71C91.5355 7.49667 91.0555 7.39 90.5622 7.39C89.9222 7.39 89.4288 7.51667 89.0822 7.77C88.7488 8.02333 88.5822 8.37667 88.5822 8.83C88.5822 9.23 88.7488 9.57667 89.0822 9.87C89.4288 10.15 90.0955 10.41 91.0822 10.65C92.2022 10.9167 93.0955 11.2433 93.7622 11.63C94.4288 12.0167 94.9022 12.4833 95.1822 13.03C95.4755 13.5767 95.6222 14.2367 95.6222 15.01C95.6222 15.7833 95.4222 16.4767 95.0222 17.09C94.6355 17.7033 94.0755 18.19 93.3422 18.55C92.6222 18.91 91.7688 19.09 90.7822 19.09Z" fill="#252829"/>
<path d="M76.3791 13.19V10.69H81.9391V13.19H76.3791ZM76.3191 7.63L77.1591 6.63V17.19L76.2191 16.27H83.0791V18.77H74.5391V5.15H83.0791V7.63H76.3191Z" fill="#252829"/>
<path d="M60.1992 18.77V5.15H64.8792C66.2526 5.15 67.4459 5.42333 68.4592 5.97C69.4859 6.51667 70.2792 7.29667 70.8392 8.31C71.4126 9.32333 71.6992 10.5433 71.6992 11.97C71.6992 13.41 71.4126 14.6367 70.8392 15.65C70.2792 16.6633 69.4859 17.4367 68.4592 17.97C67.4326 18.5033 66.2326 18.77 64.8592 18.77H60.1992ZM62.8192 17.15L61.8392 16.27H64.6792C65.5192 16.27 66.2592 16.1167 66.8992 15.81C67.5526 15.5033 68.0659 15.0367 68.4392 14.41C68.8125 13.7833 68.9992 12.97 68.9992 11.97C68.9992 11.01 68.8125 10.21 68.4392 9.57C68.0792 8.93 67.5726 8.45 66.9192 8.13C66.2792 7.81 65.5392 7.65 64.6992 7.65H61.6992L62.8192 6.85V17.15Z" fill="#252829"/>
<path d="M46.9246 16.55C47.4979 16.55 47.9379 16.3767 48.2446 16.03C48.5512 15.6833 48.7046 15.2033 48.7046 14.59V5.15H51.3646V14.57C51.3646 15.45 51.1912 16.23 50.8446 16.91C50.5112 17.5767 50.0112 18.1033 49.3446 18.49C48.6912 18.8767 47.8846 19.07 46.9246 19.07C45.9779 19.07 45.1712 18.8967 44.5046 18.55C43.8379 18.19 43.3312 17.6767 42.9846 17.01C42.6512 16.3433 42.4846 15.5567 42.4846 14.65V13.85H45.1246V14.57C45.1246 15.2367 45.2846 15.7367 45.6046 16.07C45.9246 16.39 46.3646 16.55 46.9246 16.55Z" fill="#252829"/>
<path d="M33.84 13.19V10.69H39.4V13.19H33.84ZM33.78 7.63L34.62 6.63V17.19L33.68 16.27H40.54V18.77H32V5.15H40.54V7.63H33.78Z" fill="#252829"/>
</svg>
